<svg width="24" height="24" viewBox="0 0 24 24" fill="none" xmlns="http://www.w3.org/2000/svg">
<path d="M1 18.0002C1.15 16.2169 1.696 14.5752 2.638 13.0752C3.58 11.5752 4.834 10.3835 6.4 9.5002L4.55 6.3002C4.45 6.1502 4.425 5.99186 4.475 5.8252C4.525 5.65853 4.63333 5.53353 4.8 5.4502C4.93333 5.36686 5.08333 5.3502 5.25 5.4002C5.41667 5.4502 5.55 5.5502 5.65 5.7002L7.5 8.90019C8.93333 8.30019 10.4333 8.0002 12 8.0002C13.5667 8.0002 15.0667 8.30019 16.5 8.90019L18.35 5.7002C18.45 5.5502 18.5833 5.4502 18.75 5.4002C18.9167 5.3502 19.0667 5.36686 19.2 5.4502C19.3667 5.53353 19.475 5.65853 19.525 5.8252C19.575 5.99186 19.55 6.1502 19.45 6.3002L17.6 9.5002C19.1667 10.3835 20.4207 11.5752 21.362 13.0752C22.3033 14.5752 22.8493 16.2169 23 18.0002H1ZM7 15.2502C7.35 15.2502 7.646 15.1292 7.888 14.8872C8.13 14.6452 8.25067 14.3495 8.25 14.0002C8.24933 13.6509 8.12833 13.3549 7.887 13.1122C7.64567 12.8695 7.35 12.7489 7 12.7502C6.65 12.7515 6.354 12.8725 6.112 13.1132C5.87 13.3539 5.74933 13.6495 5.75 14.0002C5.75067 14.3509 5.87167 14.6469 6.113 14.8882C6.35433 15.1295 6.65 15.2502 7 15.2502ZM17 15.2502C17.35 15.2502 17.646 15.1292 17.888 14.8872C18.13 14.6452 18.2507 14.3495 18.25 14.0002C18.2493 13.6509 18.1283 13.3549 17.887 13.1122C17.6457 12.8695 17.35 12.7489 17 12.7502C16.65 12.7515 16.354 12.8725 16.112 13.1132C15.87 13.3539 15.7493 13.6495 15.75 14.0002C15.7507 14.3509 15.8717 14.6469 16.113 14.8882C16.3543 15.1295 16.65 15.2502 17 15.2502Z" fill="white"/>
</svg>
