<svg width="24" height="24" viewBox="0 0 24 24" fill="none" xmlns="http://www.w3.org/2000/svg">
<path d="M20.5621 10.1881C20.8121 9.50009 20.8751 8.81209 20.8121 8.12509C20.7501 7.43809 20.5001 6.75009 20.1871 6.12509C19.6251 5.18809 18.8121 4.43809 17.8751 4.00009C16.8751 3.56309 15.8121 3.43809 14.7501 3.68809C14.2501 3.18809 13.6871 2.75009 13.0621 2.43809C12.4371 2.12609 11.6871 2.00009 11.0001 2.00009C9.927 1.99382 8.87853 2.32165 8.00011 2.93809C7.12511 3.56209 6.50011 4.43809 6.18711 5.43809C5.43711 5.62509 4.81211 5.93809 4.18711 6.31309C3.62511 6.75009 3.18711 7.31309 2.81211 7.87509C2.25011 8.81309 2.06211 9.87509 2.18711 10.9381C2.31283 11.998 2.74754 12.9975 3.43711 13.8121C3.2009 14.4725 3.11547 15.1774 3.18711 15.8751C3.25011 16.5631 3.50011 17.2501 3.81211 17.8751C4.37511 18.8131 5.18711 19.5631 6.12511 20.0001C7.12511 20.4381 8.18711 20.5631 9.25011 20.3131C9.75011 20.8131 10.3121 21.2501 10.9371 21.5631C11.5621 21.8761 12.3121 22.0001 13.0001 22.0001C14.0731 22.0066 15.1216 21.6792 16.0001 21.0631C16.8751 20.4381 17.5001 19.5631 17.8121 18.5631C18.5183 18.4289 19.1825 18.1291 19.7501 17.6881C20.3121 17.2501 20.8121 16.7501 21.1251 16.1251C21.6871 15.1881 21.8751 14.1251 21.7501 13.0631C21.6251 12.0001 21.2501 11.0011 20.5621 10.1881ZM13.0621 20.6871C12.0621 20.6871 11.3121 20.3741 10.6251 19.8121C10.6251 19.8121 10.6871 19.7491 10.7501 19.7491L14.7501 17.4371C14.8611 17.387 14.95 17.2981 15.0001 17.1871C15.0502 17.0908 15.0717 16.9822 15.0621 16.8741V11.2501L16.7501 12.2501V16.8751C16.7673 17.3699 16.6846 17.8632 16.507 18.3253C16.3293 18.7875 16.0603 19.2091 15.7161 19.565C15.3719 19.9209 14.9594 20.2038 14.5034 20.3967C14.0474 20.5897 13.5572 20.6878 13.0621 20.6871ZM5.00011 17.2501C4.56211 16.5001 4.37511 15.6251 4.56211 14.7501C4.56211 14.7501 4.62511 14.8131 4.68711 14.8131L8.68711 17.1251C8.78312 17.176 8.89188 17.1979 9.00011 17.1881C9.12511 17.1881 9.25011 17.1881 9.31211 17.1251L14.1871 14.3131V16.2501L10.1251 18.6251C9.70398 18.8696 9.23872 19.0287 8.756 19.093C8.27328 19.1574 7.7826 19.1258 7.31211 19.0001C6.31211 18.7501 5.50011 18.1251 5.00011 17.2501ZM3.93711 8.56309C4.37845 7.81565 5.06237 7.24184 5.87511 6.93709V11.6881C5.87511 11.8121 5.87511 11.9381 5.93711 12.0001C5.98722 12.1111 6.07612 12.2 6.18711 12.2501L11.0621 15.0631L9.37511 16.0631L5.37511 13.7501C4.94914 13.5094 4.57513 13.1866 4.27475 12.8004C3.97436 12.4142 3.75356 11.9722 3.62511 11.5001C3.37511 10.5631 3.43711 9.43809 3.93711 8.56309ZM17.7501 11.7501L12.8751 8.93809L14.5621 7.93809L18.5621 10.2501C19.1871 10.6251 19.6871 11.1251 20.0001 11.7501C20.3131 12.3751 20.5001 13.0631 20.4371 13.8131C20.3772 14.5171 20.1169 15.1893 19.6871 15.7501C19.2501 16.3131 18.6871 16.7501 18.0001 17.0001V12.2501C18.0001 12.1251 18.0001 12.0001 17.9371 11.9381C17.9371 11.9381 17.8751 11.8121 17.7501 11.7501ZM19.4371 9.25009C19.4371 9.25009 19.3751 9.18809 19.3121 9.18809L15.3121 6.87509C15.1871 6.81309 15.1251 6.81309 15.0001 6.81309C14.8751 6.81309 14.7501 6.81309 14.6871 6.87509L9.81211 9.68809V7.75009L13.8751 5.37509C14.5001 5.00009 15.1871 4.87509 15.9371 4.87509C16.6251 4.87509 17.3121 5.12509 17.9371 5.56309C18.5001 6.00009 19.0001 6.56309 19.2501 7.18809C19.5001 7.81309 19.5621 8.56309 19.4371 9.25009ZM8.93711 12.7501L7.25011 11.7501V7.06309C7.25011 6.37509 7.43711 5.62509 7.81211 5.06309C8.18711 4.43809 8.75011 4.00009 9.37511 3.68809C10.0121 3.36834 10.734 3.25876 11.4371 3.37509C12.1251 3.43809 12.8121 3.75009 13.3751 4.18809C13.3751 4.18809 13.3121 4.25009 13.2501 4.25009L9.25011 6.56309C9.13912 6.61319 9.05022 6.70209 9.00011 6.81309C8.93711 6.93809 8.93711 7.00009 8.93711 7.12509V12.7501ZM9.81211 10.7501L12.0001 9.50009L14.1871 10.7501V13.2501L12.0001 14.5001L9.81211 13.2501V10.7501Z" fill="white"/>
</svg>
