<svg width="24" height="24" viewBox="0 0 24 24" fill="none" xmlns="http://www.w3.org/2000/svg">
<path d="M10.99 1.97413C13.91 0.114133 17.947 0.982132 19.991 3.90813C20.4761 4.58712 20.8208 5.35612 21.0049 6.17005C21.189 6.98398 21.2087 7.82647 21.063 8.64813C20.9212 9.43273 20.6218 10.1805 20.183 10.8461C20.823 12.0671 21.038 13.4661 20.793 14.8231C20.6486 15.6286 20.3378 16.3951 19.8802 17.0735C19.4227 17.752 18.8286 18.3274 18.136 18.7631L13.009 22.0311C10.089 23.8911 6.05198 23.0241 4.00698 20.0981C3.52208 19.4189 3.17766 18.6496 2.99392 17.8355C2.81018 17.0214 2.79083 16.1788 2.93698 15.3571C3.07879 14.5725 3.37815 13.8248 3.81698 13.1591C3.17685 11.9383 2.96186 10.5389 3.20598 9.18213C3.35044 8.37658 3.66147 7.61006 4.11916 6.93161C4.57686 6.25316 5.17114 5.67773 5.86398 5.24213L10.99 1.97413ZM8.04898 20.2501C8.83098 20.5401 9.68198 20.5821 10.489 20.3731C10.858 20.2741 11.209 20.1201 11.531 19.9151L16.659 16.6481C17.0755 16.3859 17.4327 16.0397 17.7078 15.6316C17.983 15.2235 18.17 14.7626 18.257 14.2781C18.3445 13.7841 18.3326 13.2775 18.2218 12.7881C18.1111 12.2987 17.9037 11.8364 17.612 11.4281C17.1371 10.7431 16.4634 10.2204 15.6818 9.9307C14.9003 9.64097 14.0486 9.59819 13.242 9.80813C12.873 9.90713 12.522 10.0611 12.2 10.2661L10.243 11.5121C10.1462 11.5743 10.0402 11.6208 9.92898 11.6501C9.77143 11.6909 9.60733 11.7 9.44625 11.6767C9.28517 11.6535 9.13033 11.5984 8.99073 11.5147C8.85113 11.4311 8.72957 11.3205 8.63313 11.1894C8.53669 11.0583 8.4673 10.9093 8.42898 10.7511C8.39467 10.6034 8.39126 10.4502 8.41898 10.3011C8.44535 10.1556 8.50162 10.017 8.58424 9.89432C8.66686 9.77159 8.77403 9.66734 8.89898 9.58813L14.028 6.32013C14.1248 6.258 14.2307 6.21143 14.342 6.18213C14.5852 6.11944 14.8417 6.13269 15.0772 6.22011C15.3126 6.30753 15.5156 6.46492 15.659 6.67113C15.816 6.89313 15.889 7.16313 15.866 7.43313L15.848 7.62313L16.039 7.68113C16.7596 7.89868 17.4377 8.23791 18.044 8.68413L18.307 8.87613L18.403 8.58113C18.455 8.42447 18.496 8.26513 18.526 8.10313C18.6137 7.60913 18.6019 7.10259 18.4913 6.61321C18.3807 6.12382 18.1736 5.66143 17.882 5.25313C17.4072 4.56775 16.7333 4.04473 15.9516 3.75481C15.1698 3.46489 14.3179 3.42207 13.511 3.63213C13.1421 3.73014 12.7906 3.88464 12.469 4.09013L7.33998 7.35713C6.92313 7.61918 6.56553 7.9653 6.29003 8.37339C6.01453 8.78147 5.82719 9.24254 5.73998 9.72713C5.65242 10.2212 5.66437 10.7278 5.77513 11.2172C5.88589 11.7066 6.09322 12.1689 6.38498 12.5771C6.85992 13.2623 7.53384 13.7852 8.31558 14.0749C9.09733 14.3646 9.9492 14.4073 10.756 14.1971C11.125 14.0981 11.476 13.9441 11.798 13.7401L13.754 12.4921C13.8526 12.4301 13.9576 12.3845 14.069 12.3551C14.2265 12.3148 14.3905 12.306 14.5515 12.3295C14.7124 12.3529 14.8671 12.408 15.0066 12.4916C15.1461 12.5752 15.2676 12.6857 15.3642 12.8165C15.4607 12.9474 15.5303 13.0962 15.569 13.2541C15.603 13.4011 15.606 13.5541 15.58 13.7031C15.5534 13.8489 15.4968 13.9875 15.4138 14.1102C15.3309 14.233 15.2233 14.3371 15.098 14.4161L9.97098 17.6851C9.87411 17.7469 9.76816 17.7931 9.65698 17.8221C9.41389 17.8849 9.15741 17.8718 8.92198 17.7846C8.68655 17.6974 8.48346 17.5402 8.33998 17.3341C8.18321 17.1125 8.10989 16.8426 8.13298 16.5721L8.14998 16.3821L7.95998 16.3241C7.23934 16.1066 6.56123 15.7674 5.95498 15.3211L5.69198 15.1291L5.59598 15.4241C5.54518 15.5808 5.5041 15.7404 5.47298 15.9021C5.38528 16.3961 5.39707 16.9027 5.50765 17.3921C5.61824 17.8814 5.82539 18.3438 6.11698 18.7521C6.59173 19.4373 7.26542 19.9602 8.04698 20.2501" fill="white"/>
</svg>
